<?xml version="1.0" standalone="no"?>
<!DOCTYPE svg PUBLIC "-//W3C//DTD SVG 20010904//EN"
 "http://www.w3.org/TR/2001/REC-SVG-20010904/DTD/svg10.dtd">
<svg version="1.0" xmlns="http://www.w3.org/2000/svg"
 width="70.000000pt" height="70.000000pt" viewBox="0 0 70.000000 70.000000"
 preserveAspectRatio="xMidYMid meet">
<metadata>
Created by potrace 1.11, written by Peter Selinger 2001-2013
</metadata>
<g transform="translate(0.000000,70.000000) scale(0.100000,-0.100000)"
fill="#000000" stroke="none">
<path d="M319 673 c-37 -40 -59 -75 -59 -93 0 -9 7 -5 18 12 20 31 65 68 82
68 14 0 9 32 -5 37 -6 2 -22 -9 -36 -24z"/>
<path d="M421 671 c-13 -8 -12 -17 2 -61 9 -29 17 -68 17 -86 0 -43 12 -43 50
-1 35 38 33 71 -8 124 -25 34 -37 39 -61 24z"/>
<path d="M518 648 c-7 -19 22 -86 40 -93 21 -8 23 -3 12 37 -12 40 -45 77 -52
56z"/>
<path d="M184 618 c-21 -24 -39 -59 -49 -94 -4 -16 6 -10 40 21 31 30 45 50
45 69 0 32 -10 33 -36 4z"/>
<path d="M332 624 c-39 -27 -52 -65 -41 -115 6 -24 8 -56 5 -71 -8 -39 7 -35
45 13 17 22 43 45 57 50 22 9 24 14 19 55 -5 44 -29 84 -51 84 -6 0 -22 -7
-34 -16z"/>
<path d="M181 535 c-36 -31 -55 -84 -53 -148 1 -35 -2 -46 -11 -41 -7 4 -8 3
-4 -1 17 -19 35 -12 41 18 3 16 11 36 17 44 13 15 57 17 79 3 22 -14 28 5 19
58 -9 47 -33 92 -48 92 -5 0 -23 -11 -40 -25z"/>
<path d="M508 511 c-32 -29 -33 -30 -19 -68 8 -21 16 -56 19 -78 2 -22 7 -44
12 -48 12 -13 59 44 65 78 5 28 4 40 -10 107 -9 38 -31 41 -67 9z"/>
<path d="M54 499 c-14 -24 -6 -125 13 -159 25 -45 49 -53 39 -14 -4 16 -9 47
-11 69 -10 103 -22 134 -41 104z"/>
<path d="M344 423 l-50 -56 45 -68 c45 -67 46 -68 66 -50 11 10 35 26 53 37
24 14 32 25 32 47 0 70 -41 147 -78 147 -10 0 -40 -26 -68 -57z"/>
<path d="M619 411 c-1 -6 -3 -15 -4 -21 -1 -5 -3 -13 -4 -17 0 -5 -12 -20 -25
-36 -23 -26 -23 -28 -7 -61 14 -31 17 -33 29 -18 27 36 43 144 22 157 -5 3
-11 1 -11 -4z"/>
<path d="M182 393 c-6 -2 -15 -22 -18 -44 -4 -23 -12 -39 -20 -39 -24 0 -15
-45 14 -73 l28 -27 19 35 c33 63 84 55 122 -19 10 -20 18 -25 25 -18 23 23
-106 194 -145 191 -6 0 -18 -3 -25 -6z"/>
<path d="M53 280 c9 -42 42 -87 77 -105 36 -19 40 -19 40 1 0 18 -66 99 -99
121 -24 15 -24 15 -18 -17z"/>
<path d="M472 268 c-43 -24 -122 -93 -122 -107 0 -21 18 -16 88 21 69 36 77
38 88 23 11 -15 14 -14 28 7 23 33 20 57 -10 68 -32 12 -24 14 -72 -12z"/>
<path d="M630 255 c-8 -15 -35 -45 -59 -66 -24 -22 -42 -42 -39 -45 15 -14
123 105 116 127 -2 6 -10 -1 -18 -16z"/>
<path d="M230 255 c-7 -8 -18 -35 -26 -62 -18 -59 -7 -73 60 -80 67 -8 79 5
58 65 -9 26 -22 55 -28 65 -13 23 -50 29 -64 12z"/>
<path d="M433 155 c-94 -53 -107 -65 -62 -61 116 11 144 28 137 80 -3 22 -5
21 -75 -19z"/>
<path d="M149 123 c-5 -15 -9 -40 -7 -57 3 -28 7 -31 77 -50 l74 -20 19 24 20
24 -64 21 c-53 17 -65 25 -77 53 -18 39 -28 40 -42 5z"/>
<path d="M210 100 c0 -13 97 -40 134 -39 26 1 24 3 -14 11 -25 5 -62 16 -82
23 -21 7 -38 9 -38 5z"/>
</g>
</svg>
